<?xml version="1.0" encoding="utf-8"?>
<!-- Generator: Adobe Illustrator 18.1.1, SVG Export Plug-In . SVG Version: 6.00 Build 0)  -->
<!DOCTYPE svg PUBLIC "-//W3C//DTD SVG 1.1//EN" "http://www.w3.org/Graphics/SVG/1.1/DTD/svg11.dtd">
<svg version="1.1" id="Layer_1" xmlns="http://www.w3.org/2000/svg" xmlns:xlink="http://www.w3.org/1999/xlink" x="0px" y="0px"
	 viewBox="0 0 850 500" enable-background="new 0 0 850 500" xml:space="preserve">
<line fill="none" stroke="#545554" stroke-width="2" stroke-miterlimit="10" x1="180.2" y1="279.4" x2="73" y2="254.3"/>
<g>
	<path fill="#2F997A" d="M278.6,205.2h-98.4v52.9h98.4V205.2 M670.2,205.2H375.9v52.9h294.3V205.2"/>
	<path fill="#3D8BB1" d="M375.9,258.1h-97.3v158.7h97.3V258.1 M375.9,152.1h-97.3v53.1h97.3V152.1"/>
	<polyline fill="#0B5355" points="375.9,205.2 278.6,205.2 278.6,258.1 375.9,258.1 375.9,205.2 	"/>
</g>
<rect x="474.2" y="311.6" fill="#DA6F29" width="97.7" height="53.1"/>
<rect x="474.6" y="152" fill="#DA6F29" width="97.7" height="53.1"/>
<rect x="572" y="364.9" fill="#DA6F29" width="97.7" height="53.1"/>
<line fill="none" stroke="#545554" stroke-width="3" stroke-miterlimit="10" x1="180" y1="205.2" x2="670" y2="205.2"/>
<line fill="none" stroke="#545554" stroke-width="3" stroke-miterlimit="10" x1="180" y1="258.4" x2="670" y2="258.4"/>
<line fill="none" stroke="#545554" stroke-width="3" stroke-miterlimit="10" x1="180" y1="311.6" x2="670" y2="311.6"/>
<line fill="none" stroke="#545554" stroke-width="3" stroke-miterlimit="10" x1="180" y1="364.8" x2="670" y2="364.8"/>
<line fill="none" stroke="#545554" stroke-width="3" stroke-miterlimit="10" x1="278" y1="418" x2="278" y2="152"/>
<line fill="none" stroke="#545554" stroke-width="3" stroke-miterlimit="10" x1="376" y1="418" x2="376" y2="152"/>
<line fill="none" stroke="#545554" stroke-width="3" stroke-miterlimit="10" x1="474" y1="418" x2="474" y2="152"/>
<line fill="none" stroke="#545554" stroke-width="3" stroke-miterlimit="10" x1="572" y1="418" x2="572" y2="152"/>
<rect x="180" y="152" fill="none" stroke="#545554" stroke-width="3" stroke-miterlimit="10" width="490" height="266"/>
<line fill="none" stroke="#3D8BB1" stroke-width="2" stroke-miterlimit="10" x1="244" y1="80" x2="326" y2="169"/>
<line fill="none" stroke="#2F997A" stroke-width="2" stroke-miterlimit="10" x1="649.5" y1="238" x2="727.9" y2="190.8"/>
<line fill="none" stroke="#DA6F29" stroke-width="2" stroke-miterlimit="10" x1="759" y1="417.7" x2="650" y2="392.3"/>
<g>
	<circle fill="#3D8BB1" cx="235" cy="66.2" r="24.5"/>
	<g>
		<path fill="#FFFFFF" d="M228.1,74c1.5-1.3,2.8-2.5,4-3.5c1.2-1.1,2.2-2.1,3-3s1.5-1.8,1.9-2.6s0.7-1.6,0.7-2.3
			c0-1-0.3-1.8-0.9-2.4c-0.6-0.6-1.5-0.9-2.7-0.9c-0.8,0-1.6,0.2-2.3,0.6c-0.7,0.4-1.3,0.9-1.9,1.5l-1.9-1.9
			c0.9-0.9,1.9-1.7,2.9-2.2s2.2-0.8,3.6-0.8c1,0,1.9,0.1,2.7,0.4c0.8,0.3,1.5,0.7,2.1,1.2s1,1.1,1.3,1.8s0.5,1.5,0.5,2.4
			c0,0.8-0.2,1.7-0.6,2.6c-0.4,0.9-1,1.8-1.7,2.6c-0.7,0.8-1.6,1.9-2.6,2.8s-2,1.9-3.1,2.9c0.6,0,1.1-0.1,1.8-0.1
			c0.6,0,1.2-0.1,1.7-0.1h5.4v2.9h-13.9V74z"/>
	</g>
</g>
<g>
	<circle fill="#2F997A" cx="746.1" cy="182.2" r="24.5"/>
	<g>
		<path fill="#FFFFFF" d="M740.6,187.2c0.6,0.6,1.4,1.1,2.2,1.5c0.9,0.4,1.8,0.6,2.8,0.6c1.2,0,2.2-0.3,2.9-0.8
			c0.8-0.5,1.2-1.2,1.2-2.1c0-0.5-0.1-0.9-0.3-1.3s-0.6-0.7-1.1-1s-1.1-0.5-2-0.6c-0.8-0.1-1.8-0.2-3-0.2v-2.5c1,0,1.9-0.1,2.6-0.2
			c0.7-0.1,1.3-0.4,1.8-0.6c0.4-0.3,0.8-0.6,1-1s0.3-0.8,0.3-1.2c0-0.8-0.3-1.4-0.9-1.9c-0.6-0.4-1.4-0.7-2.4-0.7
			c-0.8,0-1.6,0.2-2.3,0.5s-1.4,0.8-2,1.3l-1.8-2.1c0.9-0.7,1.8-1.3,2.9-1.7c1-0.4,2.2-0.7,3.4-0.7c1,0,1.9,0.1,2.7,0.3
			s1.5,0.5,2.1,1s1.1,1,1.4,1.6c0.3,0.6,0.5,1.3,0.5,2.1c0,1.1-0.4,2-1,2.7c-0.7,0.7-1.6,1.3-2.8,1.7v0.1c0.6,0.2,1.2,0.4,1.8,0.6
			c0.5,0.3,1,0.6,1.4,1s0.7,0.9,1,1.4c0.2,0.5,0.4,1.1,0.4,1.7c0,0.9-0.2,1.7-0.6,2.3c-0.4,0.7-0.9,1.3-1.6,1.7
			c-0.7,0.5-1.4,0.8-2.3,1.1c-0.9,0.2-1.8,0.4-2.8,0.4c-1.6,0-3-0.3-4.2-0.8s-2.1-1.2-2.8-1.9L740.6,187.2z"/>
	</g>
</g>
<g>
	<circle fill="#DA6F29" cx="779.7" cy="422" r="24.5"/>
	<g>
		<path fill="#FFFFFF" d="M786,426.7h-2.7v4.9h-3.2v-4.9h-9.5v-2.3l8.8-11.9h4V424h2.7L786,426.7L786,426.7z M780.1,424v-4.6
			c0-0.6,0-1.2,0.1-1.9c0-0.7,0.1-1.3,0.1-1.9h-0.1c-0.3,0.5-0.7,1-1,1.5s-0.7,1-1,1.5l-4,5.3h5.9V424z"/>
	</g>
</g>
<g>
	<circle fill="#545554" cx="85.9" cy="256" r="24.5"/>
	<g>
		<path fill="#FFFFFF" d="M92.6,262.7v2.8H79.3v-2.8h5.2v-12.5h-4V248c1.1-0.2,2-0.4,2.8-0.6c0.8-0.2,1.5-0.6,2.1-0.9h2.5v16.3
			L92.6,262.7L92.6,262.7z"/>
	</g>
</g>
</svg>
